<svg xmlns="http://www.w3.org/2000/svg" width="620" height="674" viewBox="0 0 620 674"><rect x="0" y="0" width="620" height="674" fill="#f7f4ec"/><circle cx="310" cy="310" r="290" fill="none" stroke="#d8d0bd" stroke-width="1.5"/><circle cx="310" cy="310" r="235" fill="none" stroke="#e4dcc8" stroke-width="1" stroke-dasharray="4 4"/><circle cx="334.8244553037631" cy="348.75485578053406" r="52.49999999999999" fill="#ece6d6" stroke="none"/><circle cx="223.10449113646322" cy="186.57715653335455" r="95" fill="#ece6d6" stroke="none"/><circle cx="474.7069947416775" cy="237.285386190138" r="75" fill="#ece6d6" stroke="none"/><circle cx="191.85860296450818" cy="443.20335878503033" r="75" fill="#ece6d6" stroke="none"/><circle cx="421.00264807605726" cy="463.8124789424329" r="65" fill="#ece6d6" stroke="none"/><circle cx="344.67539165475563" cy="170.33660813408684" r="45" fill="#ece6d6" stroke="none"/><circle cx="179.3533397258401" cy="324.7564095681057" r="18" fill="#ece6d6" stroke="none"/><circle cx="444.4823585664076" cy="357.5402812375944" r="17" fill="#ece6d6" stroke="none"/><circle cx="239.95290184702446" cy="322.65934610518974" r="17" fill="#ece6d6" stroke="none"/><circle cx="390.99211344760823" cy="254.29393667001415" r="17" fill="#ece6d6" stroke="none"/><circle cx="277.52824176159936" cy="434.47867333796324" r="17" fill="#ece6d6" stroke="none"/><circle cx="140.66622968887253" cy="278.3281330579249" r="17" fill="#ece6d6" stroke="none"/><circle cx="223.10449113646322" cy="186.57715653335455" r="95" fill="#f3c9c2" stroke="#c9756a" stroke-width="1.5"/><text x="223.10449113646322" y="186.57715653335455" font-family="system-ui,sans-serif" font-size="11" fill="#8a4a41" text-anchor="middle" dominant-baseline="middle">castle</text><circle cx="421.00264807605726" cy="463.8124789424329" r="65" fill="#f3c9c2" stroke="#c9756a" stroke-width="1.5"/><text x="421.00264807605726" y="463.8124789424329" font-family="system-ui,sans-serif" font-size="11" fill="#8a4a41" text-anchor="middle" dominant-baseline="middle">big wheel</text><path d="M147.9 302.3 L149.8 301.7 L151.7 301.2 L153.5 300.8 L155.4 300.4 L157.3 300.1 L159.3 299.8 L161.2 299.5 L163.1 299.4 L165.0 299.2 L167.0 299.1 L168.9 299.1 L170.8 299.1 L172.8 299.2 L174.7 299.3 L176.6 299.5 L178.6 299.7 L180.5 300.0 L182.4 300.3 L184.3 300.7 L186.2 301.1 L188.1 301.6 L189.9 302.1 L191.8 302.7 L193.6 303.3 L195.4 304.0 L197.2 304.7 L199.0 305.5 L200.7 306.3 L202.4 307.1 L204.1 308.0 L205.8 309.0 L207.4 309.9 L209.0 310.9 L210.6 312.0 L212.1 313.1 L213.6 314.2 L215.0 315.3 L216.5 316.5 L217.8 317.7 L219.2 319.0 L220.5 320.3 L221.8 321.5 L223.1 322.8 L224.3 324.2 L225.5 325.6 L226.7 326.9 L227.9 328.2 L229.2 329.5 L230.5 330.7 L231.8 331.9 L233.2 333.1 L234.6 334.2 L236.0 335.4 L237.5 336.4 L239.0 337.4 L240.5 338.4 L242.1 339.4 L243.7 340.3 L245.3 341.2 L246.9 342.0 L248.6 342.8 L250.3 343.5 L252.0 344.2 L253.8 344.9 L255.6 345.5 L257.4 346.1 L259.2 346.6 L261.0 347.1 L262.9 347.5 L264.8 347.9 L266.7 348.2 L268.6 348.5 L270.5 348.7 L272.4 348.8 L274.3 348.9 L276.3 349.0 L278.2 349.0 L280.1 348.9 L282.1 348.8 L284.0 348.7 L285.9 348.5 L287.8 348.2 L289.7 347.9 L291.6 347.5 L293.5 347.1 L295.4 346.6 L297.2 346.1 L299.1 345.5 L300.9 344.8 L302.7 344.2 L304.5 343.4 L306.2 342.6 L307.9 341.8 L309.7 340.9 L311.3 340.0 L313.0 339.0 L314.6 338.0 L316.2 337.0 L317.8 335.9 L319.4 334.7 L320.9 333.6 L322.4 332.4 L323.9 331.2 L325.4 329.9 L326.8 328.6 L328.2 327.3 L329.6 325.9 L330.9 324.5 L332.2 323.1 L333.5 321.6 L334.7 320.1 L335.9 318.6 L337.0 317.1 L338.2 315.6 L339.2 314.0 L340.3 312.4 L341.3 310.7 L342.3 309.1 L343.2 307.4 L344.1 305.7 L345.0 304.0 L345.8 302.3 L346.6 300.5 L347.4 298.7 L348.1 296.9 L348.7 295.1 L349.4 293.3 L349.9 291.4 L350.5 289.6 L351.0 287.7 L351.4 285.8 L351.8 283.9 L352.2 282.0 L352.5 280.1 L352.8 278.2 L353.0 276.3 L353.2 274.4 L353.4 272.4 L353.5 270.5 L353.5 268.6 L353.5 266.6 L353.5 264.7 L353.5 262.8 L353.4 260.9 L353.2 259.0 L353.1 257.1 L353.1 255.1 L353.1 253.2 L353.2 251.3 L353.3 249.4 L353.4 247.5 L353.6 245.6 L353.9 243.7 L354.2 241.8 L354.6 239.9 L355.0 238.0 L355.4 236.2 L355.9 234.3 L356.5 232.4 L357.1 230.6 L357.7 228.8 L358.4 227.0 L359.2 225.2 L359.9 223.5 L360.8 221.8 L361.6 220.1 L362.5 218.4 L363.5 216.7 L364.5 215.0 L365.6 213.4 L366.6 211.8 L367.8 210.3 L368.9 208.7 L370.1 207.2 L371.3 205.8 L372.6 204.4 L373.9 203.0 L375.2 201.6 L376.6 200.3 L378.0 199.0 L379.5 197.7 L380.9 196.5 L382.4 195.3 L384.0 194.1 L385.5 193.0 L387.1 192.0 L388.6 191.0 L390.2 190.0 L391.8 189.1 L393.5 188.2 L395.1 187.4 L396.8 186.5 L398.5 185.8 L400.3 185.1 L402.0 184.4 L403.8 183.7 L405.6 183.1 L407.4 182.6 L409.2 182.1 L411.0 181.6 L412.8 181.2 L414.7 180.9 L416.6 180.5 L418.4 180.3 L420.3 180.1 L422.2 179.9 L424.1 179.7 L426.0 179.7 L427.9 179.6 L429.8 179.7 L431.7 179.7 L433.6 179.8 L435.5 180.0 L437.4 180.2 L439.3 180.4 L441.2 180.7 L443.1 181.1 L445.0 181.4 L446.9 181.9 L448.7 182.3 L450.6 182.9 L452.4 183.4 L454.2 184.0 L455.9 184.6 L457.7 185.3 L459.4 186.0 L461.1 186.8 L462.8 187.6 L464.5 188.4 L466.2 189.3 L467.9 190.2 L469.5 191.2 L471.2 192.2 L472.8 193.3 L474.3 194.4 L475.9 195.5 L477.4 196.7 L478.9 197.9 L480.4 199.1 L481.8 200.4 L483.3 201.7 L484.6 203.1 L486.0 204.5 L487.3 205.9 L488.6 207.4 L489.8 208.8 L491.0 210.3 L492.2 211.9 L493.3 213.4 L494.4 215.0 L495.5 216.6 L496.5 218.2 L497.5 219.8 L498.4 221.5 L499.3 223.2 L500.1 224.8 L500.9 226.5 L501.7 228.2 L502.4 230.0 L503.0 231.7 L503.7 233.4 L504.3 235.2 L504.8 236.9 L505.3 238.7 L505.8 240.4 L506.2 242.2 L506.6 243.9 L506.9 245.7 L507.2 247.5 L507.5 249.2 L507.7 251.0 L507.8 252.8 L508.0 254.5 L508.1 256.3 L508.1 258.1 L508.1 259.8 L508.1 261.5 L508.1 263.2 L508.0 265.0 L507.8 266.8 L507.6 268.6 L507.4 270.5 L507.1 272.5 L506.8 274.4 L506.4 276.3 L506.0 278.2 L505.5 280.0 L505.0 281.9 L504.5 283.7 L503.9 285.6 L503.3 287.4 L502.7 289.2 L502.0 291.0 L501.3 292.8 L500.6 294.6 L499.9 296.4 L499.1 298.1 L498.3 299.9 L497.4 301.6 L496.6 303.4 L495.7 305.1 L494.7 306.8 L493.8 308.4 L492.8 310.0 L491.8 311.6 L490.8 313.2 L489.8 314.8 L488.7 316.4 L487.6 318.0 L486.4 319.5 L485.2 321.1 L484.0 322.6 L482.8 324.1 L481.6 325.6 L480.3 327.0 L479.0 328.4 L477.6 329.9 L476.3 331.2 L474.9 332.6 L473.5 333.9 L472.1 335.3 L470.7 336.6 L469.2 337.8 L467.7 339.1 L466.2 340.3 L464.7 341.5 L463.1 342.6 L461.6 343.8 L460.0 344.9 L458.4 346.0 L456.8 347.0 L455.1 348.1 L453.5 349.1 L451.8 350.0 L450.1 351.0 L448.4 351.9 L446.7 352.8 L445.0 353.6 L443.3 354.5 L441.5 355.2 L439.8 356.0 L438.0 356.7 L436.2 357.5 L434.4 358.1 L432.6 358.8 L430.8 359.4 L428.9 360.0 L427.1 360.5 L425.3 361.1 L423.4 361.6 L421.6 362.0 L419.7 362.4 L417.8 362.8 L415.9 363.2 L414.1 363.5 L412.2 363.8 L410.3 364.1 L408.4 364.3 L406.4 364.5 L404.5 364.7 L402.6 364.9 L400.7 365.0 L398.8 365.0 L396.8 365.1 L394.9 365.1 L393.0 365.1 L391.0 365.0 L389.1 364.9 L387.2 364.8 L385.2 364.6 L383.3 364.4 L381.4 364.2 L379.5 363.9 L377.5 363.7 L375.6 363.4 L373.7 363.1 L371.8 362.8 L369.9 362.5 L368.0 362.2 L366.1 362.0 L364.1 361.9 L362.2 361.8 L360.3 361.7 L358.4 361.7 L356.4 361.8 L354.5 361.8 L352.6 362.0 L350.7 362.2 L348.8 362.4 L346.9 362.6 L345.0 362.9 L343.1 363.3 L341.2 363.7 L339.3 364.1 L337.4 364.6 L335.6 365.2 L333.7 365.7 L331.9 366.4 L330.1 367.0 L328.3 367.7 L326.5 368.5 L324.8 369.2 L323.1 370.0 L321.4 370.9 L319.7 371.8 L318.1 372.7 L316.4 373.7 L314.8 374.7 L313.2 375.7 L311.6 376.8 L310.1 377.9 L308.6 379.1 L307.1 380.3 L305.6 381.5 L304.2 382.8 L302.7 384.1 L301.4 385.4 L300.0 386.8 L298.7 388.2 L297.4 389.7 L296.2 391.1 L294.9 392.6 L293.7 394.0 L292.4 395.5 L291.2 397.0 L290.0 398.5 L288.7 400.0 L287.4 401.4 L286.0 402.8 L284.7 404.2 L283.3 405.6 L281.9 406.9 L280.5 408.2 L279.1 409.5 L277.7 410.8 L276.2 412.1 L274.7 413.4 L273.3 414.6 L271.7 415.8 L270.2 417.0 L268.7 418.2 L267.2 419.3 L265.6 420.5 L264.0 421.6 L262.4 422.6 L260.8 423.7 L259.2 424.7 L257.6 425.8 L256.0 426.8 L254.3 427.7 L252.7 428.7 L251.0 429.6 L249.3 430.5 L247.7 431.4 L246.0 432.2 L244.3 433.1 L242.6 433.9 L240.8 434.7 L239.1 435.4 L237.3 436.2 L235.5 436.9 L233.8 437.6 L232.0 438.3 L230.1 438.9 L228.3 439.6 L226.5 440.2 L224.6 440.8 L222.8 441.3 L221.0 441.9 L219.1 442.4 L217.2 442.9 L215.4 443.3 L213.5 443.8 L211.6 444.2 L209.8 444.6 L207.9 444.9 L206.0 445.2 L204.1 445.6 L202.2 445.8 L200.3 446.1 L198.4 446.3 L196.5 446.5 L194.5 446.7 L192.6 446.8 L190.7 446.9 L188.7 446.9 L186.8 446.9 L184.9 446.8 L182.9 446.7 L181.0 446.6 L179.1 446.4 L177.1 446.2 L175.2 445.9 L173.3 445.6 L171.4 445.3 L169.5 444.9 L167.6 444.4 L165.8 444.0 L163.9 443.5 L162.1 442.9 L160.2 442.3 L158.4 441.7 L156.6 441.0 L154.8 440.3 L153.1 439.6 L151.3 438.8 L149.6 438.0 L147.9 437.1 L146.2 436.2 L144.5 435.3 L142.9 434.4 L141.3 433.4 L139.7 432.4 L138.2 431.3 L136.6 430.3 L135.1 429.2 L133.7 428.1 L132.2 426.9 L130.8 425.7 L129.4 424.5 L128.0 423.3 L126.6 422.0 L125.3 420.6 L124.0 419.3 L122.7 417.9 L121.4 416.5 L120.2 415.0 L119.0 413.6 L117.8 412.1 L116.7 410.6 L115.6 409.1 L114.5 407.5 L113.5 406.0 L112.5 404.4 L111.6 402.8 L110.7 401.2 L109.8 399.5 L108.9 397.9 L108.1 396.2 L107.3 394.5 L106.6 392.8 L105.9 391.1 L105.2 389.4 L104.6 387.6 L104.0 385.9 L103.4 384.1 L102.9 382.3 L102.5 380.5 L102.1 378.7 L101.8 376.9 L101.5 375.0 L101.2 373.2 L101.0 371.3 L100.9 369.5 L100.8 367.6 L100.8 365.7 L100.8 363.8 L100.9 362.0 L101.1 360.1 L101.2 358.2 L101.5 356.3 L101.8 354.5 L102.1 352.6 L102.5 350.7 L103.0 348.9 L103.5 347.0 L104.1 345.2 L104.7 343.4 L105.4 341.6 L106.1 339.8 L106.9 338.1 L107.7 336.3 L108.6 334.6 L109.5 332.9 L110.5 331.2 L111.5 329.6 L112.6 328.0 L113.7 326.4 L114.9 324.9 L116.1 323.4 L117.4 321.9 L118.7 320.5 L120.0 319.1 L121.4 317.7 L122.8 316.4 L124.3 315.1 L125.8 313.9 L127.3 312.7 L128.9 311.6 L130.5 310.5 L132.1 309.4 L133.7 308.4 L135.4 307.5 L137.2 306.6 L138.9 305.7 L140.7 304.9 L142.4 304.2 L144.3 303.5 L146.1 302.8 L147.9 302.3" fill="none" stroke="#2f6f8f" stroke-width="3" stroke-linejoin="round"/><circle cx="140.66622968887253" cy="278.3281330579249" r="5" fill="#e0a84a"/><circle cx="147.92334662023407" cy="302.2516414512301" r="6" fill="#2f6f8f"/><line x1="140.66622968887253" y1="278.3281330579249" x2="147.92334662023407" y2="302.2516414512301" stroke="#e0a84a" stroke-width="1.5" stroke-dasharray="3 3"/><text x="12" y="640" font-family="system-ui,sans-serif" font-size="14" fill="#33302a">alternative B (routeSalt 0xc0a590)</text><text x="12" y="660" font-family="system-ui,sans-serif" font-size="12" fill="#6b665c">232 m of track · tightest turn 13.1 m · clears the castle by 5.1 m · clears the wheel by 7.1 m</text></svg>