<svg xmlns="http://www.w3.org/2000/svg" width="620" height="674" viewBox="0 0 620 674"><rect x="0" y="0" width="620" height="674" fill="#f7f4ec"/><circle cx="310" cy="310" r="290" fill="none" stroke="#d8d0bd" stroke-width="1.5"/><circle cx="310" cy="310" r="235" fill="none" stroke="#e4dcc8" stroke-width="1" stroke-dasharray="4 4"/><circle cx="334.8244553037631" cy="348.75485578053406" r="52.49999999999999" fill="#ece6d6" stroke="none"/><circle cx="223.10449113646322" cy="186.57715653335455" r="95" fill="#ece6d6" stroke="none"/><circle cx="474.7069947416775" cy="237.285386190138" r="75" fill="#ece6d6" stroke="none"/><circle cx="191.85860296450818" cy="443.20335878503033" r="75" fill="#ece6d6" stroke="none"/><circle cx="421.00264807605726" cy="463.8124789424329" r="65" fill="#ece6d6" stroke="none"/><circle cx="344.67539165475563" cy="170.33660813408684" r="45" fill="#ece6d6" stroke="none"/><circle cx="179.3533397258401" cy="324.7564095681057" r="18" fill="#ece6d6" stroke="none"/><circle cx="444.4823585664076" cy="357.5402812375944" r="17" fill="#ece6d6" stroke="none"/><circle cx="239.95290184702446" cy="322.65934610518974" r="17" fill="#ece6d6" stroke="none"/><circle cx="390.99211344760823" cy="254.29393667001415" r="17" fill="#ece6d6" stroke="none"/><circle cx="277.52824176159936" cy="434.47867333796324" r="17" fill="#ece6d6" stroke="none"/><circle cx="140.66622968887253" cy="278.3281330579249" r="17" fill="#ece6d6" stroke="none"/><circle cx="223.10449113646322" cy="186.57715653335455" r="95" fill="#f3c9c2" stroke="#c9756a" stroke-width="1.5"/><text x="223.10449113646322" y="186.57715653335455" font-family="system-ui,sans-serif" font-size="11" fill="#8a4a41" text-anchor="middle" dominant-baseline="middle">castle</text><circle cx="421.00264807605726" cy="463.8124789424329" r="65" fill="#f3c9c2" stroke="#c9756a" stroke-width="1.5"/><text x="421.00264807605726" y="463.8124789424329" font-family="system-ui,sans-serif" font-size="11" fill="#8a4a41" text-anchor="middle" dominant-baseline="middle">big wheel</text><path d="M160.1 307.4 L161.6 306.5 L163.0 305.6 L164.5 304.8 L166.0 303.9 L167.5 303.1 L169.1 302.4 L170.6 301.6 L172.2 301.0 L173.8 300.3 L175.4 299.7 L177.0 299.2 L178.7 298.7 L180.3 298.2 L182.0 297.7 L183.7 297.3 L185.3 297.0 L187.0 296.7 L188.7 296.4 L190.4 296.2 L192.1 296.0 L193.8 295.8 L195.6 295.7 L197.3 295.7 L199.0 295.7 L200.7 295.7 L202.4 295.7 L204.1 295.8 L205.8 296.0 L207.5 296.2 L209.2 296.4 L210.9 296.7 L212.6 297.0 L214.3 297.4 L215.9 297.7 L217.6 298.2 L219.2 298.6 L220.8 299.2 L222.3 299.7 L223.9 300.3 L225.4 300.9 L227.0 301.6 L228.5 302.2 L230.0 302.9 L231.4 303.7 L232.9 304.4 L234.3 305.2 L235.7 306.1 L237.0 307.0 L238.4 307.9 L239.7 308.7 L241.1 309.6 L242.5 310.4 L244.0 311.2 L245.4 311.9 L246.9 312.6 L248.3 313.3 L249.8 313.9 L251.3 314.6 L252.8 315.2 L254.4 315.7 L255.9 316.3 L257.5 316.8 L259.1 317.2 L260.7 317.6 L262.3 318.0 L263.9 318.4 L265.5 318.7 L267.2 318.9 L268.9 319.2 L270.5 319.4 L272.2 319.5 L273.9 319.6 L275.6 319.7 L277.3 319.8 L279.0 319.8 L280.7 319.7 L282.4 319.6 L284.1 319.5 L285.8 319.4 L287.5 319.2 L289.2 318.9 L290.9 318.7 L292.5 318.3 L294.2 318.0 L295.8 317.6 L297.4 317.2 L299.0 316.7 L300.6 316.2 L302.2 315.7 L303.8 315.1 L305.4 314.5 L307.0 313.8 L308.5 313.1 L310.1 312.4 L311.6 311.7 L313.1 310.9 L314.6 310.0 L316.0 309.2 L317.5 308.3 L318.9 307.3 L320.3 306.4 L321.6 305.4 L323.0 304.4 L324.3 303.3 L325.6 302.2 L326.8 301.1 L328.1 299.9 L329.3 298.8 L330.4 297.5 L331.6 296.3 L332.7 295.0 L333.8 293.7 L334.8 292.4 L335.9 291.1 L337.0 289.8 L338.0 288.5 L339.0 287.1 L340.0 285.7 L340.9 284.3 L341.9 282.9 L342.9 281.5 L343.8 280.1 L344.9 278.7 L345.9 277.4 L347.0 276.1 L348.2 274.8 L349.3 273.5 L350.4 272.3 L351.6 271.0 L352.8 269.8 L354.0 268.6 L355.3 267.4 L356.5 266.2 L357.8 265.0 L359.1 263.9 L360.4 262.8 L361.7 261.7 L363.1 260.6 L364.4 259.6 L365.8 258.6 L367.2 257.6 L368.6 256.6 L370.0 255.6 L371.4 254.7 L372.9 253.8 L374.3 252.9 L375.8 252.1 L377.3 251.2 L378.8 250.4 L380.3 249.6 L381.8 248.8 L383.3 248.1 L384.8 247.4 L386.4 246.7 L388.0 246.0 L389.5 245.4 L391.1 244.7 L392.7 244.1 L394.3 243.5 L396.0 243.0 L397.6 242.5 L399.2 242.0 L400.8 241.5 L402.5 241.0 L404.1 240.6 L405.8 240.2 L407.4 239.8 L409.1 239.5 L410.8 239.2 L412.5 238.9 L414.2 238.6 L415.9 238.4 L417.6 238.1 L419.3 238.0 L421.0 237.8 L422.7 237.6 L424.4 237.5 L426.1 237.5 L427.9 237.4 L429.6 237.4 L431.3 237.4 L433.0 237.4 L434.7 237.4 L436.4 237.5 L438.1 237.6 L439.8 237.8 L441.5 237.9 L443.2 238.1 L444.8 238.3 L446.5 238.5 L448.1 238.8 L449.8 239.1 L451.4 239.4 L453.0 239.7 L454.6 240.1 L456.3 240.5 L457.9 240.9 L459.5 241.3 L461.1 241.8 L462.6 242.3 L464.2 242.8 L465.8 243.4 L467.3 244.0 L468.9 244.7 L470.4 245.4 L471.9 246.1 L473.4 246.9 L474.9 247.7 L476.3 248.5 L477.8 249.4 L479.2 250.3 L480.6 251.3 L482.0 252.2 L483.3 253.3 L484.7 254.3 L486.0 255.4 L487.3 256.5 L488.6 257.7 L489.8 258.9 L491.0 260.1 L492.1 261.3 L493.3 262.5 L494.4 263.8 L495.4 265.0 L496.4 266.3 L497.4 267.7 L498.4 269.0 L499.3 270.4 L500.3 271.8 L501.1 273.2 L502.0 274.7 L502.8 276.2 L503.6 277.7 L504.4 279.2 L505.1 280.8 L505.8 282.3 L506.4 283.9 L507.0 285.5 L507.6 287.2 L508.1 288.8 L508.6 290.4 L509.1 292.1 L509.5 293.8 L509.8 295.4 L510.2 297.1 L510.5 298.8 L510.7 300.5 L510.9 302.2 L511.1 303.8 L511.2 305.5 L511.3 307.2 L511.4 308.9 L511.4 310.6 L511.4 312.2 L511.3 313.9 L511.2 315.5 L511.0 317.2 L510.9 318.8 L510.6 320.4 L510.4 322.0 L510.1 323.5 L509.8 325.1 L509.4 326.7 L509.0 328.2 L508.6 329.8 L508.2 331.3 L507.7 332.8 L507.2 334.3 L506.6 335.8 L506.0 337.3 L505.4 338.7 L504.7 340.2 L504.1 341.6 L503.3 343.0 L502.6 344.5 L501.7 345.9 L500.9 347.3 L500.0 348.7 L499.1 350.0 L498.1 351.4 L497.2 352.7 L496.1 354.0 L495.0 355.3 L493.9 356.6 L492.7 357.8 L491.6 359.1 L490.3 360.3 L489.1 361.4 L487.8 362.6 L486.4 363.7 L485.1 364.7 L483.7 365.8 L482.3 366.7 L480.9 367.7 L479.5 368.6 L478.0 369.5 L476.5 370.3 L475.0 371.1 L473.5 371.9 L471.9 372.6 L470.3 373.3 L468.7 373.9 L467.1 374.5 L465.5 375.0 L463.9 375.6 L462.2 376.0 L460.6 376.5 L458.9 376.8 L457.2 377.2 L455.5 377.5 L453.8 377.7 L452.1 377.9 L450.4 378.1 L448.7 378.2 L447.0 378.3 L445.3 378.4 L443.5 378.3 L441.8 378.3 L440.1 378.2 L438.4 378.0 L436.7 377.8 L435.0 377.6 L433.3 377.3 L431.6 377.0 L430.0 376.6 L428.3 376.2 L426.6 375.8 L425.0 375.3 L423.4 374.7 L421.8 374.1 L420.2 373.5 L418.6 372.8 L417.0 372.1 L415.5 371.3 L414.0 370.6 L412.4 369.8 L410.9 368.9 L409.5 368.0 L408.0 367.1 L406.6 366.2 L405.1 365.2 L403.7 364.3 L402.2 363.4 L400.7 362.6 L399.2 361.8 L397.7 361.0 L396.2 360.3 L394.6 359.6 L393.1 358.9 L391.5 358.2 L389.9 357.6 L388.3 357.0 L386.7 356.4 L385.1 355.9 L383.5 355.4 L381.9 354.9 L380.2 354.5 L378.6 354.1 L376.9 353.7 L375.2 353.4 L373.6 353.1 L371.9 352.8 L370.2 352.5 L368.5 352.3 L366.8 352.1 L365.1 352.0 L363.3 351.9 L361.6 351.8 L359.9 351.7 L358.2 351.7 L356.5 351.8 L354.8 351.8 L353.1 351.9 L351.4 352.0 L349.6 352.2 L347.9 352.3 L346.2 352.5 L344.6 352.8 L342.9 353.1 L341.2 353.4 L339.5 353.7 L337.8 354.1 L336.2 354.5 L334.5 354.9 L332.9 355.4 L331.3 355.9 L329.7 356.4 L328.0 357.0 L326.4 357.6 L324.9 358.2 L323.3 358.9 L321.7 359.6 L320.1 360.3 L318.6 361.0 L317.1 361.8 L315.6 362.6 L314.1 363.4 L312.6 364.3 L311.2 365.2 L309.7 366.1 L308.3 367.0 L306.9 368.0 L305.6 369.0 L304.2 370.0 L302.9 371.0 L301.6 372.1 L300.3 373.2 L299.0 374.3 L297.8 375.4 L296.5 376.6 L295.3 377.8 L294.2 379.0 L293.0 380.2 L291.9 381.5 L290.7 382.7 L289.7 384.1 L288.6 385.4 L287.6 386.8 L286.6 388.1 L285.6 389.5 L284.6 390.9 L283.5 392.3 L282.5 393.6 L281.4 394.9 L280.3 396.3 L279.2 397.6 L278.1 398.9 L277.0 400.2 L275.9 401.5 L274.7 402.8 L273.5 404.0 L272.3 405.3 L271.1 406.5 L269.9 407.7 L268.6 408.8 L267.4 410.0 L266.1 411.1 L264.8 412.2 L263.5 413.3 L262.2 414.4 L260.8 415.5 L259.5 416.5 L258.1 417.5 L256.7 418.5 L255.3 419.5 L253.9 420.5 L252.5 421.4 L251.1 422.3 L249.7 423.2 L248.2 424.1 L246.8 424.9 L245.3 425.7 L243.9 426.5 L242.4 427.3 L240.9 428.1 L239.4 428.8 L237.9 429.5 L236.4 430.2 L234.8 430.9 L233.2 431.6 L231.7 432.2 L230.1 432.8 L228.5 433.4 L226.9 434.0 L225.2 434.6 L223.6 435.1 L222.0 435.6 L220.4 436.1 L218.7 436.6 L217.1 437.0 L215.4 437.4 L213.8 437.8 L212.1 438.2 L210.5 438.5 L208.8 438.8 L207.1 439.1 L205.4 439.4 L203.7 439.6 L202.0 439.9 L200.3 440.1 L198.6 440.2 L196.9 440.4 L195.2 440.5 L193.5 440.6 L191.8 440.7 L190.1 440.8 L188.3 440.8 L186.6 440.8 L184.9 440.8 L183.2 440.8 L181.5 440.7 L179.8 440.6 L178.1 440.5 L176.4 440.3 L174.7 440.1 L173.0 439.8 L171.3 439.6 L169.6 439.3 L167.9 438.9 L166.3 438.6 L164.7 438.1 L163.1 437.6 L161.5 437.1 L159.9 436.6 L158.4 436.0 L156.9 435.3 L155.4 434.6 L154.0 433.9 L152.5 433.2 L151.1 432.4 L149.7 431.6 L148.4 430.8 L147.0 429.9 L145.7 429.0 L144.5 428.1 L143.2 427.1 L142.0 426.1 L140.8 425.1 L139.6 424.0 L138.4 422.9 L137.3 421.8 L136.2 420.6 L135.1 419.3 L134.0 418.1 L132.9 416.8 L131.9 415.5 L131.0 414.1 L130.0 412.8 L129.1 411.4 L128.3 410.0 L127.4 408.5 L126.6 407.1 L125.9 405.6 L125.2 404.1 L124.5 402.6 L123.9 401.1 L123.3 399.6 L122.8 398.0 L122.3 396.4 L121.8 394.9 L121.4 393.3 L121.0 391.7 L120.7 390.0 L120.4 388.4 L120.2 386.8 L120.0 385.1 L119.8 383.5 L119.6 381.8 L119.6 380.2 L119.5 378.5 L119.5 376.8 L119.5 375.2 L119.6 373.5 L119.7 371.8 L119.9 370.2 L120.1 368.5 L120.3 366.8 L120.6 365.2 L120.8 363.5 L121.2 361.9 L121.6 360.2 L122.0 358.6 L122.4 356.9 L122.9 355.3 L123.4 353.7 L124.0 352.1 L124.6 350.5 L125.2 348.9 L125.9 347.3 L126.6 345.7 L127.3 344.2 L128.1 342.7 L128.9 341.2 L129.8 339.7 L130.6 338.2 L131.5 336.7 L132.5 335.3 L133.4 333.8 L134.4 332.4 L135.4 331.0 L136.4 329.7 L137.5 328.3 L138.6 327.0 L139.7 325.7 L140.8 324.4 L141.9 323.1 L143.1 321.8 L144.3 320.6 L145.5 319.4 L146.7 318.2 L148.0 317.0 L149.3 315.8 L150.5 314.7 L151.9 313.6 L153.2 312.5 L154.5 311.4 L155.9 310.4 L157.3 309.4 L158.7 308.4 L160.1 307.4" fill="none" stroke="#2f6f8f" stroke-width="3" stroke-linejoin="round"/><circle cx="140.66622968887253" cy="278.3281330579249" r="5" fill="#e0a84a"/><circle cx="159.78592104891672" cy="307.6410294582121" r="6" fill="#2f6f8f"/><line x1="140.66622968887253" y1="278.3281330579249" x2="159.78592104891672" y2="307.6410294582121" stroke="#e0a84a" stroke-width="1.5" stroke-dasharray="3 3"/><text x="12" y="640" font-family="system-ui,sans-serif" font-size="14" fill="#33302a">alternative B (routeSalt 0xc0a590)</text><text x="12" y="660" font-family="system-ui,sans-serif" font-size="12" fill="#6b665c">206 m of track · tightest turn 12.4 m · clears the castle by 3.1 m · clears the wheel by 4.5 m</text></svg>